<svg xmlns="http://www.w3.org/2000/svg" viewBox="0 0 319 262.38"><defs><style>.cls-1{opacity:0.5;}.cls-2{fill:#95c1ab;}</style></defs><title>ArteAtivo 10icon</title><g id="Camada_2" data-name="Camada 2"><g id="Camada_3" data-name="Camada 3"><g class="cls-1"><rect class="cls-2" width="12.53" height="13.64"/><rect class="cls-2" x="51.08" width="12.53" height="13.64"/><rect class="cls-2" x="102.16" width="12.53" height="13.64"/><rect class="cls-2" x="153.24" width="12.53" height="13.64"/><rect class="cls-2" x="204.31" width="12.53" height="13.64"/><rect class="cls-2" x="255.39" width="12.53" height="13.64"/><rect class="cls-2" x="306.47" width="12.53" height="13.64"/><rect class="cls-2" y="41.46" width="12.53" height="13.64"/><rect class="cls-2" x="51.08" y="41.46" width="12.53" height="13.64"/><rect class="cls-2" x="102.16" y="41.46" width="12.53" height="13.64"/><rect class="cls-2" x="153.24" y="41.46" width="12.53" height="13.64"/><rect class="cls-2" x="204.31" y="41.46" width="12.53" height="13.64"/><rect class="cls-2" x="255.39" y="41.46" width="12.53" height="13.64"/><rect class="cls-2" x="306.47" y="41.46" width="12.53" height="13.64"/><rect class="cls-2" y="82.91" width="12.53" height="13.64"/><rect class="cls-2" x="51.08" y="82.91" width="12.53" height="13.64"/><rect class="cls-2" x="102.16" y="82.91" width="12.53" height="13.64"/><rect class="cls-2" x="153.24" y="82.91" width="12.53" height="13.64"/><rect class="cls-2" x="204.31" y="82.91" width="12.53" height="13.64"/><rect class="cls-2" x="255.39" y="82.91" width="12.53" height="13.64"/><rect class="cls-2" x="306.47" y="82.91" width="12.53" height="13.64"/><rect class="cls-2" y="124.37" width="12.53" height="13.64"/><rect class="cls-2" x="51.08" y="124.37" width="12.53" height="13.64"/><rect class="cls-2" x="102.16" y="124.37" width="12.53" height="13.64"/><rect class="cls-2" x="153.24" y="124.37" width="12.53" height="13.64"/><rect class="cls-2" x="204.31" y="124.37" width="12.53" height="13.64"/><rect class="cls-2" x="255.39" y="124.37" width="12.53" height="13.64"/><rect class="cls-2" x="306.47" y="124.37" width="12.53" height="13.64"/><rect class="cls-2" y="165.82" width="12.53" height="13.64"/><rect class="cls-2" x="51.08" y="165.82" width="12.53" height="13.64"/><rect class="cls-2" x="102.16" y="165.82" width="12.53" height="13.64"/><rect class="cls-2" x="153.24" y="165.82" width="12.53" height="13.64"/><rect class="cls-2" x="204.31" y="165.82" width="12.53" height="13.64"/><rect class="cls-2" x="255.39" y="165.82" width="12.53" height="13.64"/><rect class="cls-2" x="306.47" y="165.82" width="12.53" height="13.64"/><rect class="cls-2" y="207.28" width="12.53" height="13.64"/><rect class="cls-2" x="51.08" y="207.28" width="12.53" height="13.64"/><rect class="cls-2" x="102.16" y="207.28" width="12.53" height="13.64"/><rect class="cls-2" x="153.24" y="207.28" width="12.53" height="13.64"/><rect class="cls-2" x="204.31" y="207.28" width="12.53" height="13.64"/><rect class="cls-2" x="255.39" y="207.28" width="12.53" height="13.64"/><rect class="cls-2" x="306.47" y="207.28" width="12.53" height="13.64"/><rect class="cls-2" y="248.73" width="12.53" height="13.64"/><rect class="cls-2" x="51.08" y="248.73" width="12.53" height="13.64"/><rect class="cls-2" x="102.16" y="248.73" width="12.53" height="13.64"/><rect class="cls-2" x="153.24" y="248.73" width="12.53" height="13.64"/><rect class="cls-2" x="204.31" y="248.73" width="12.53" height="13.64"/><rect class="cls-2" x="255.39" y="248.73" width="12.53" height="13.64"/><rect class="cls-2" x="306.47" y="248.73" width="12.53" height="13.64"/></g></g></g></svg>