<svg xmlns="http://www.w3.org/2000/svg" xmlns:xlink="http://www.w3.org/1999/xlink" viewBox="0 0 422.19 312.9"><defs><style>.cls-1{fill:#95c1ab;}.cls-2{mask:url(#mask);}</style><mask id="mask" x="0" y="0" width="422.19" height="313.63" maskUnits="userSpaceOnUse"><rect class="cls-1" x="411.94" y="302.65" width="10.25" height="10.25"/><circle class="cls-1" cx="207.67" cy="158.24" r="155.39"/></mask></defs><title>ArteAtivo 11icon</title><g id="Camada_2" data-name="Camada 2"><g id="Camada_3" data-name="Camada 3"><g class="cls-2"><rect class="cls-1" width="10.25" height="10.25"/><rect class="cls-1" x="58.85" width="10.25" height="10.25"/><rect class="cls-1" x="117.7" width="10.25" height="10.25"/><rect class="cls-1" x="176.55" width="10.25" height="10.25"/><rect class="cls-1" x="235.4" width="10.25" height="10.25"/><rect class="cls-1" x="294.24" width="10.25" height="10.25"/><rect class="cls-1" x="353.09" width="10.25" height="10.25"/><rect class="cls-1" x="411.94" width="10.25" height="10.25"/><rect class="cls-1" y="37.83" width="10.25" height="10.25"/><rect class="cls-1" x="58.85" y="37.83" width="10.25" height="10.25"/><rect class="cls-1" x="117.7" y="37.83" width="10.25" height="10.25"/><rect class="cls-1" x="176.55" y="37.83" width="10.25" height="10.25"/><rect class="cls-1" x="235.4" y="37.83" width="10.25" height="10.25"/><rect class="cls-1" x="294.24" y="37.83" width="10.25" height="10.25"/><rect class="cls-1" x="353.09" y="37.83" width="10.25" height="10.25"/><rect class="cls-1" x="411.94" y="37.83" width="10.25" height="10.25"/><rect class="cls-1" y="75.66" width="10.25" height="10.25"/><rect class="cls-1" x="58.85" y="75.66" width="10.25" height="10.25"/><rect class="cls-1" x="117.7" y="75.66" width="10.25" height="10.25"/><rect class="cls-1" x="176.55" y="75.66" width="10.25" height="10.25"/><rect class="cls-1" x="235.4" y="75.66" width="10.25" height="10.25"/><rect class="cls-1" x="294.24" y="75.66" width="10.25" height="10.25"/><rect class="cls-1" x="353.09" y="75.66" width="10.25" height="10.25"/><rect class="cls-1" x="411.94" y="75.66" width="10.25" height="10.25"/><rect class="cls-1" y="113.49" width="10.25" height="10.25"/><rect class="cls-1" x="58.85" y="113.49" width="10.25" height="10.25"/><rect class="cls-1" x="117.7" y="113.49" width="10.25" height="10.25"/><rect class="cls-1" x="176.55" y="113.49" width="10.25" height="10.25"/><rect class="cls-1" x="235.4" y="113.49" width="10.25" height="10.25"/><rect class="cls-1" x="294.24" y="113.49" width="10.25" height="10.25"/><rect class="cls-1" x="353.09" y="113.49" width="10.25" height="10.25"/><rect class="cls-1" x="411.94" y="113.49" width="10.25" height="10.25"/><rect class="cls-1" y="151.33" width="10.25" height="10.25"/><rect class="cls-1" x="58.85" y="151.33" width="10.25" height="10.25"/><rect class="cls-1" x="117.7" y="151.33" width="10.25" height="10.25"/><rect class="cls-1" x="176.55" y="151.33" width="10.25" height="10.25"/><rect class="cls-1" x="235.4" y="151.33" width="10.25" height="10.25"/><rect class="cls-1" x="294.24" y="151.33" width="10.25" height="10.25"/><rect class="cls-1" x="353.09" y="151.33" width="10.25" height="10.25"/><rect class="cls-1" x="411.94" y="151.33" width="10.25" height="10.25"/><rect class="cls-1" y="189.16" width="10.25" height="10.25"/><rect class="cls-1" x="58.85" y="189.16" width="10.25" height="10.25"/><rect class="cls-1" x="117.7" y="189.16" width="10.25" height="10.25"/><rect class="cls-1" x="176.55" y="189.16" width="10.25" height="10.25"/><rect class="cls-1" x="235.4" y="189.16" width="10.25" height="10.25"/><rect class="cls-1" x="294.24" y="189.16" width="10.25" height="10.25"/><rect class="cls-1" x="353.09" y="189.16" width="10.25" height="10.25"/><rect class="cls-1" x="411.94" y="189.16" width="10.25" height="10.25"/><rect class="cls-1" y="226.99" width="10.25" height="10.25"/><rect class="cls-1" x="58.85" y="226.99" width="10.25" height="10.25"/><rect class="cls-1" x="117.7" y="226.99" width="10.25" height="10.25"/><rect class="cls-1" x="176.55" y="226.99" width="10.25" height="10.25"/><rect class="cls-1" x="235.4" y="226.99" width="10.25" height="10.25"/><rect class="cls-1" x="294.24" y="226.99" width="10.25" height="10.25"/><rect class="cls-1" x="353.09" y="226.99" width="10.25" height="10.25"/><rect class="cls-1" x="411.94" y="226.99" width="10.25" height="10.25"/><rect class="cls-1" y="264.82" width="10.25" height="10.25"/><rect class="cls-1" x="58.85" y="264.82" width="10.25" height="10.25"/><rect class="cls-1" x="117.7" y="264.82" width="10.25" height="10.25"/><rect class="cls-1" x="176.55" y="264.82" width="10.25" height="10.25"/><rect class="cls-1" x="235.4" y="264.82" width="10.25" height="10.25"/><rect class="cls-1" x="294.24" y="264.82" width="10.25" height="10.25"/><rect class="cls-1" x="353.09" y="264.82" width="10.25" height="10.25"/><rect class="cls-1" x="411.94" y="264.82" width="10.25" height="10.25"/><rect class="cls-1" y="302.65" width="10.25" height="10.25"/><rect class="cls-1" x="58.85" y="302.65" width="10.25" height="10.25"/><rect class="cls-1" x="117.7" y="302.65" width="10.25" height="10.25"/><rect class="cls-1" x="176.55" y="302.65" width="10.25" height="10.25"/><rect class="cls-1" x="235.4" y="302.65" width="10.25" height="10.25"/><rect class="cls-1" x="294.24" y="302.65" width="10.25" height="10.25"/><rect class="cls-1" x="353.09" y="302.65" width="10.25" height="10.25"/></g></g></g></svg>